G75*
G70*
%OFA0B0*%
%FSLAX24Y24*%
%IPPOS*%
%LPD*%
%AMOC8*
5,1,8,0,0,1.08239X$1,22.5*
%
%ADD10C,0.0080*%
%ADD11C,0.0060*%
%ADD12C,0.0000*%
%ADD13C,0.0160*%
%ADD14C,0.0050*%
%ADD15R,0.0200X0.0600*%
D10*
X001640Y000660D02*
X001710Y000590D01*
X001780Y000590D01*
X001850Y000660D01*
X001850Y001010D01*
X001780Y001010D02*
X001920Y001010D01*
X002100Y001010D02*
X002241Y001010D01*
X002170Y001010D02*
X002170Y000590D01*
X002100Y000590D02*
X002241Y000590D01*
X002407Y000590D02*
X002407Y001010D01*
X002547Y000870D01*
X002688Y001010D01*
X002688Y000590D01*
X003328Y000660D02*
X003398Y000590D01*
X003538Y000590D01*
X003608Y000660D01*
X003788Y000590D02*
X003788Y001010D01*
X003608Y000940D02*
X003538Y001010D01*
X003398Y001010D01*
X003328Y000940D01*
X003328Y000660D01*
X003788Y000800D02*
X004069Y000800D01*
X004249Y000800D02*
X004389Y000800D01*
X004249Y000590D02*
X004529Y000590D01*
X004709Y000590D02*
X004709Y001010D01*
X004990Y000590D01*
X004990Y001010D01*
X004683Y001240D02*
X004402Y001240D01*
X004542Y001240D02*
X004542Y001660D01*
X004402Y001520D01*
X004222Y001520D02*
X004082Y001240D01*
X003942Y001520D01*
X004069Y001010D02*
X004069Y000590D01*
X004249Y000590D02*
X004249Y001010D01*
X004529Y001010D01*
X005190Y001885D02*
X005190Y002095D01*
X005260Y002165D01*
X005400Y002165D01*
X005470Y002095D01*
X005470Y001885D01*
X005610Y001885D02*
X005190Y001885D01*
X005470Y002025D02*
X005610Y002165D01*
X005610Y002345D02*
X005610Y002626D01*
X005610Y002486D02*
X005190Y002486D01*
X005330Y002345D01*
X005835Y001968D02*
X005835Y001850D01*
X005953Y001850D01*
X005840Y001660D02*
X005910Y001590D01*
X005630Y001310D01*
X005700Y001240D01*
X005840Y001240D01*
X005910Y001310D01*
X005910Y001590D01*
X005840Y001660D02*
X005700Y001660D01*
X005630Y001590D01*
X005630Y001310D01*
X005910Y001010D02*
X005630Y000590D01*
X005463Y001240D02*
X005323Y001380D01*
X005323Y001520D01*
X005463Y001660D01*
X006090Y001590D02*
X006161Y001660D01*
X006301Y001660D01*
X006371Y001590D01*
X006371Y001520D01*
X006090Y001240D01*
X006371Y001240D01*
X006551Y001240D02*
X006831Y001660D01*
X007011Y001520D02*
X007151Y001660D01*
X007151Y001240D01*
X007011Y001240D02*
X007291Y001240D01*
X007472Y001310D02*
X007542Y001240D01*
X007682Y001240D01*
X007752Y001310D01*
X007752Y001380D01*
X007682Y001450D01*
X007612Y001450D01*
X007682Y001450D02*
X007752Y001520D01*
X007752Y001590D01*
X007682Y001660D01*
X007542Y001660D01*
X007472Y001590D01*
X007932Y001660D02*
X008072Y001520D01*
X008072Y001380D01*
X007932Y001240D01*
X008079Y000870D02*
X008009Y000800D01*
X008009Y000660D01*
X008079Y000590D01*
X008289Y000590D01*
X008469Y000590D02*
X008469Y001010D01*
X008539Y000870D02*
X008679Y000870D01*
X008749Y000800D01*
X008749Y000590D01*
X008469Y000800D02*
X008539Y000870D01*
X008289Y000870D02*
X008079Y000870D01*
X007849Y000660D02*
X007849Y000590D01*
X007779Y000590D01*
X007779Y000660D01*
X007849Y000660D01*
X007598Y000590D02*
X007598Y000800D01*
X007528Y000870D01*
X007318Y000870D01*
X007318Y000590D01*
X007138Y000590D02*
X007138Y000800D01*
X007068Y000870D01*
X006998Y000800D01*
X006998Y000590D01*
X006858Y000590D02*
X006858Y000870D01*
X006928Y000870D01*
X006998Y000800D01*
X006691Y000870D02*
X006691Y000520D01*
X006621Y000450D01*
X006551Y000450D01*
X006691Y001010D02*
X006691Y001080D01*
X006465Y001850D02*
X006347Y001850D01*
X006465Y001850D02*
X006465Y001968D01*
X006465Y002992D02*
X006465Y003110D01*
X006347Y003110D01*
X005953Y003110D02*
X005835Y003110D01*
X005835Y002992D01*
X005580Y005040D02*
X005300Y005040D01*
X005440Y005040D02*
X005440Y005460D01*
X005300Y005320D01*
X005119Y005460D02*
X005119Y005110D01*
X005049Y005040D01*
X004909Y005040D01*
X004839Y005110D01*
X004839Y005460D01*
X004600Y006250D02*
X004600Y006850D01*
X004100Y006850D02*
X004100Y006250D01*
X003366Y005920D02*
X005334Y005920D01*
X005877Y006587D02*
X005877Y006798D01*
X006017Y006938D01*
X006017Y007008D01*
X006059Y007190D02*
X006059Y007610D01*
X005919Y007470D01*
X005739Y007540D02*
X005669Y007610D01*
X005529Y007610D01*
X005459Y007540D01*
X005459Y007260D01*
X005529Y007190D01*
X005669Y007190D01*
X005739Y007260D01*
X005919Y007190D02*
X006199Y007190D01*
X006380Y007190D02*
X006660Y007470D01*
X006660Y007540D01*
X006590Y007610D01*
X006450Y007610D01*
X006380Y007540D01*
X006209Y007770D02*
X005929Y007770D01*
X006069Y007770D02*
X006069Y008190D01*
X005929Y008050D01*
X005749Y008120D02*
X005679Y008190D01*
X005539Y008190D01*
X005469Y008120D01*
X005469Y007840D01*
X005539Y007770D01*
X005679Y007770D01*
X005749Y007840D01*
X005710Y008340D02*
X005430Y008340D01*
X005710Y008620D01*
X005710Y008690D01*
X005640Y008760D01*
X005500Y008760D01*
X005430Y008690D01*
X005249Y008690D02*
X005249Y008550D01*
X005179Y008480D01*
X004969Y008480D01*
X004969Y008340D02*
X004969Y008760D01*
X005179Y008760D01*
X005249Y008690D01*
X005300Y008100D02*
X004950Y008100D01*
X004800Y008300D01*
X004800Y009100D01*
X004700Y009200D01*
X004591Y009030D02*
X004451Y008960D01*
X004311Y008820D01*
X004521Y008820D01*
X004591Y008750D01*
X004591Y008680D01*
X004521Y008610D01*
X004381Y008610D01*
X004311Y008680D01*
X004311Y008820D01*
X004131Y008610D02*
X003850Y008610D01*
X003991Y008610D02*
X003991Y009030D01*
X003850Y008890D01*
X003670Y008960D02*
X003600Y009030D01*
X003460Y009030D01*
X003390Y008960D01*
X003390Y008680D01*
X003460Y008610D01*
X003600Y008610D01*
X003670Y008680D01*
X003600Y008430D02*
X003460Y008430D01*
X003390Y008360D01*
X003390Y008080D01*
X003460Y008010D01*
X003600Y008010D01*
X003670Y008080D01*
X003850Y008010D02*
X004131Y008010D01*
X003991Y008010D02*
X003991Y008430D01*
X003850Y008290D01*
X003670Y008360D02*
X003600Y008430D01*
X003300Y008450D02*
X003150Y008600D01*
X003150Y009200D01*
X003300Y009050D01*
X003150Y009200D02*
X003150Y009700D01*
X003250Y009900D01*
X003250Y011000D01*
X003450Y011450D01*
X003131Y011400D02*
X003131Y011260D01*
X003061Y011190D01*
X002920Y011190D01*
X002850Y011260D01*
X002850Y011400D02*
X002991Y011470D01*
X003061Y011470D01*
X003131Y011400D01*
X003131Y011610D02*
X002850Y011610D01*
X002850Y011400D01*
X002670Y011260D02*
X002670Y011610D01*
X002579Y011690D02*
X002649Y011760D01*
X002579Y011690D02*
X002439Y011690D01*
X002369Y011760D01*
X002369Y012040D01*
X002439Y012110D01*
X002579Y012110D01*
X002649Y012040D01*
X002830Y012040D02*
X002830Y011970D01*
X002900Y011900D01*
X003110Y011900D01*
X003110Y011760D02*
X003110Y012040D01*
X003040Y012110D01*
X002900Y012110D01*
X002830Y012040D01*
X002830Y011760D02*
X002900Y011690D01*
X003040Y011690D01*
X003110Y011760D01*
X002670Y011260D02*
X002600Y011190D01*
X002460Y011190D01*
X002390Y011260D01*
X002390Y011610D01*
X002400Y011502D02*
X002400Y010400D01*
X002550Y010100D02*
X002200Y009650D01*
X002200Y008500D01*
X002330Y008580D02*
X001430Y008580D01*
X001441Y008440D02*
X001301Y008370D01*
X001160Y008230D01*
X001371Y008230D01*
X001441Y008160D01*
X001441Y008090D01*
X001371Y008020D01*
X001230Y008020D01*
X001160Y008090D01*
X001160Y008230D01*
X000980Y008090D02*
X000980Y008440D01*
X000980Y008090D02*
X000910Y008020D01*
X000770Y008020D01*
X000700Y008090D01*
X000700Y008440D01*
X000650Y007810D02*
X000510Y007810D01*
X000440Y007740D01*
X000440Y007460D01*
X000510Y007390D01*
X000650Y007390D01*
X000720Y007460D01*
X000900Y007460D02*
X000970Y007390D01*
X001111Y007390D01*
X001181Y007460D01*
X001181Y007530D01*
X001111Y007600D01*
X001041Y007600D01*
X001111Y007600D02*
X001181Y007670D01*
X001181Y007740D01*
X001111Y007810D01*
X000970Y007810D01*
X000900Y007740D01*
X000720Y007740D02*
X000650Y007810D01*
X001250Y007300D02*
X001500Y007050D01*
X001460Y007390D02*
X001600Y007390D01*
X001670Y007460D01*
X001460Y007390D02*
X001390Y007460D01*
X001390Y007740D01*
X001460Y007810D01*
X001600Y007810D01*
X001670Y007740D01*
X001850Y007670D02*
X001991Y007810D01*
X001991Y007390D01*
X002131Y007390D02*
X001850Y007390D01*
X002311Y007460D02*
X002381Y007390D01*
X002521Y007390D01*
X002591Y007460D01*
X002591Y007530D01*
X002521Y007600D01*
X002451Y007600D01*
X002521Y007600D02*
X002591Y007670D01*
X002591Y007740D01*
X002521Y007810D01*
X002381Y007810D01*
X002311Y007740D01*
X002250Y008020D02*
X002531Y008020D01*
X002391Y008020D02*
X002391Y008440D01*
X002250Y008300D01*
X002070Y008370D02*
X002000Y008440D01*
X001860Y008440D01*
X001790Y008370D01*
X001790Y008090D01*
X001860Y008020D01*
X002000Y008020D01*
X002070Y008090D01*
X002711Y008090D02*
X002991Y008370D01*
X002991Y008090D01*
X002921Y008020D01*
X002781Y008020D01*
X002711Y008090D01*
X002711Y008370D01*
X002781Y008440D01*
X002921Y008440D01*
X002991Y008370D01*
X003366Y007180D02*
X005334Y007180D01*
X005737Y007008D02*
X005737Y006938D01*
X005877Y006798D01*
X006197Y006868D02*
X006337Y007008D01*
X006337Y006587D01*
X006197Y006587D02*
X006477Y006587D01*
X006380Y007190D02*
X006660Y007190D01*
X006600Y007770D02*
X006600Y008190D01*
X006390Y007980D01*
X006670Y007980D01*
X006590Y008340D02*
X006450Y008340D01*
X006380Y008410D01*
X006520Y008550D02*
X006590Y008550D01*
X006660Y008480D01*
X006660Y008410D01*
X006590Y008340D01*
X006590Y008550D02*
X006660Y008620D01*
X006660Y008690D01*
X006590Y008760D01*
X006450Y008760D01*
X006380Y008690D01*
X006199Y008690D02*
X006199Y008550D01*
X006129Y008480D01*
X005919Y008480D01*
X005919Y008340D02*
X005919Y008760D01*
X006129Y008760D01*
X006199Y008690D01*
X004591Y008430D02*
X004591Y008360D01*
X004311Y008080D01*
X004311Y008010D01*
X004311Y008430D02*
X004591Y008430D01*
X004459Y011070D02*
X004319Y011070D01*
X004249Y011140D01*
X004249Y011490D01*
X004529Y011490D02*
X004529Y011140D01*
X004459Y011070D01*
X004710Y011280D02*
X004990Y011280D01*
X004920Y011070D02*
X004920Y011490D01*
X004710Y011280D01*
X003480Y013825D02*
X003283Y013825D01*
X003283Y014475D01*
X003480Y014475D02*
X003480Y013825D01*
X003660Y014110D02*
X003660Y014530D01*
X003940Y014530D01*
X003800Y014320D02*
X003660Y014320D01*
X004120Y014320D02*
X004331Y014320D01*
X004401Y014250D01*
X004401Y014180D01*
X004331Y014110D01*
X004120Y014110D01*
X004120Y014530D01*
X004331Y014530D01*
X004401Y014460D01*
X004401Y014390D01*
X004331Y014320D01*
X004581Y014390D02*
X004721Y014530D01*
X004721Y014110D01*
X004581Y014110D02*
X004861Y014110D01*
X003480Y016325D02*
X003480Y016975D01*
X003283Y016975D01*
X003283Y016325D01*
X003283Y016975D02*
X002692Y016975D01*
X002692Y017172D01*
X000468Y017172D01*
X000346Y016975D02*
X002692Y016975D01*
X003392Y017146D02*
X003602Y017146D01*
X003673Y017216D01*
X003673Y017497D01*
X003602Y017567D01*
X003392Y017567D01*
X003392Y017146D01*
X003853Y017146D02*
X004133Y017146D01*
X003993Y017146D02*
X003993Y017567D01*
X003853Y017427D01*
X001481Y017440D02*
X001200Y017440D01*
X001341Y017440D02*
X001341Y017860D01*
X001200Y017720D01*
X001020Y017860D02*
X000880Y017860D01*
X000950Y017860D02*
X000950Y017510D01*
X000880Y017440D01*
X000810Y017440D01*
X000740Y017510D01*
X000346Y013825D02*
X001192Y013825D01*
X001192Y013628D02*
X000468Y013628D01*
X000560Y013230D02*
X000490Y013160D01*
X000490Y012880D01*
X000560Y012810D01*
X000700Y012810D01*
X000770Y012880D01*
X000950Y012880D02*
X000950Y012950D01*
X001020Y013020D01*
X001161Y013020D01*
X001231Y012950D01*
X001231Y012880D01*
X001161Y012810D01*
X001020Y012810D01*
X000950Y012880D01*
X001020Y013020D02*
X000950Y013090D01*
X000950Y013160D01*
X001020Y013230D01*
X001161Y013230D01*
X001231Y013160D01*
X001231Y013090D01*
X001161Y013020D01*
X000770Y013160D02*
X000700Y013230D01*
X000560Y013230D01*
X000471Y011502D02*
X000865Y011502D01*
X000471Y011502D02*
X000471Y010400D01*
X001430Y009760D02*
X001760Y009760D01*
X002000Y009760D01*
X002330Y009760D01*
X002000Y009760D02*
X001998Y009739D01*
X001993Y009719D01*
X001984Y009700D01*
X001972Y009683D01*
X001957Y009668D01*
X001940Y009656D01*
X001921Y009647D01*
X001901Y009642D01*
X001880Y009640D01*
X001859Y009642D01*
X001839Y009647D01*
X001820Y009656D01*
X001803Y009668D01*
X001788Y009683D01*
X001776Y009700D01*
X001767Y009719D01*
X001762Y009739D01*
X001760Y009760D01*
X001941Y005660D02*
X001941Y005240D01*
X002081Y005240D02*
X001800Y005240D01*
X001620Y005310D02*
X001550Y005240D01*
X001410Y005240D01*
X001340Y005310D01*
X001340Y005590D01*
X001410Y005660D01*
X001550Y005660D01*
X001620Y005590D01*
X001800Y005520D02*
X001941Y005660D01*
X001920Y001660D02*
X001640Y001660D01*
X001780Y001660D02*
X001780Y001240D01*
X002100Y001240D02*
X002100Y001660D01*
X002311Y001660D01*
X002381Y001590D01*
X002381Y001520D01*
X002311Y001450D01*
X002100Y001450D01*
X002100Y001240D02*
X002311Y001240D01*
X002381Y001310D01*
X002381Y001380D01*
X002311Y001450D01*
X002561Y001450D02*
X002841Y001450D01*
X003021Y001450D02*
X003231Y001450D01*
X003301Y001380D01*
X003301Y001310D01*
X003231Y001240D01*
X003021Y001240D01*
X003021Y001660D01*
X003231Y001660D01*
X003301Y001590D01*
X003301Y001520D01*
X003231Y001450D01*
X002841Y001660D02*
X002841Y001240D01*
X002561Y001240D02*
X002561Y001660D01*
X009699Y007800D02*
X009769Y007730D01*
X009909Y007730D01*
X009979Y007800D01*
X009979Y008150D01*
X010160Y008080D02*
X010230Y008150D01*
X010370Y008150D01*
X010440Y008080D01*
X010440Y008010D01*
X010160Y007730D01*
X010440Y007730D01*
X009699Y007800D02*
X009699Y008150D01*
X011540Y007100D02*
X011540Y006820D01*
X011610Y006750D01*
X011750Y006750D01*
X011820Y006820D01*
X011820Y007100D01*
X011750Y007170D01*
X011610Y007170D01*
X011540Y007100D01*
X011680Y006890D02*
X011820Y006750D01*
X012000Y006750D02*
X012281Y006750D01*
X012141Y006750D02*
X012141Y007170D01*
X012000Y007030D01*
X012057Y007435D02*
X011623Y007435D01*
X011623Y008065D02*
X012057Y008065D01*
X012660Y007060D02*
X012590Y006990D01*
X012590Y006710D01*
X012660Y006640D01*
X012800Y006640D01*
X012870Y006710D01*
X013050Y006640D02*
X013331Y006640D01*
X013191Y006640D02*
X013191Y007060D01*
X013050Y006920D01*
X012870Y006990D02*
X012800Y007060D01*
X012660Y007060D01*
X013511Y006920D02*
X013651Y007060D01*
X013651Y006640D01*
X013511Y006640D02*
X013791Y006640D01*
X012681Y006020D02*
X012681Y005950D01*
X012400Y005670D01*
X012400Y005600D01*
X012220Y005670D02*
X012150Y005600D01*
X012010Y005600D01*
X011940Y005670D01*
X011940Y005950D01*
X012010Y006020D01*
X012150Y006020D01*
X012220Y005950D01*
X012400Y006020D02*
X012681Y006020D01*
X012720Y001690D02*
X012720Y001340D01*
X012650Y001270D01*
X012510Y001270D01*
X012440Y001340D01*
X012440Y001690D01*
X012900Y001620D02*
X012970Y001690D01*
X013111Y001690D01*
X013181Y001620D01*
X013181Y001550D01*
X013111Y001480D01*
X013181Y001410D01*
X013181Y001340D01*
X013111Y001270D01*
X012970Y001270D01*
X012900Y001340D01*
X013041Y001480D02*
X013111Y001480D01*
X013019Y000960D02*
X013229Y000960D01*
X013299Y000890D01*
X013299Y000750D01*
X013229Y000680D01*
X013019Y000680D01*
X013019Y000540D02*
X013019Y000960D01*
X013480Y000960D02*
X013480Y000750D01*
X013620Y000820D01*
X013690Y000820D01*
X013760Y000750D01*
X013760Y000610D01*
X013690Y000540D01*
X013550Y000540D01*
X013480Y000610D01*
X013480Y000960D02*
X013760Y000960D01*
X012581Y000750D02*
X012300Y000750D01*
X012511Y000960D01*
X012511Y000540D01*
X012120Y000750D02*
X012050Y000680D01*
X011840Y000680D01*
X011840Y000540D02*
X011840Y000960D01*
X012050Y000960D01*
X012120Y000890D01*
X012120Y000750D01*
X009360Y014239D02*
X008940Y014239D01*
X008940Y014449D01*
X009010Y014519D01*
X009150Y014519D01*
X009220Y014449D01*
X009220Y014239D01*
X009360Y014700D02*
X009360Y014980D01*
X009360Y014840D02*
X008940Y014840D01*
X009080Y014700D01*
X009340Y015190D02*
X009340Y015610D01*
X009620Y015610D01*
X009800Y015610D02*
X010011Y015610D01*
X010081Y015540D01*
X010081Y015470D01*
X010011Y015400D01*
X009800Y015400D01*
X009800Y015190D02*
X010011Y015190D01*
X010081Y015260D01*
X010081Y015330D01*
X010011Y015400D01*
X009800Y015190D02*
X009800Y015610D01*
X009480Y015400D02*
X009340Y015400D01*
X008791Y015500D02*
X008721Y015430D01*
X008581Y015430D01*
X008511Y015500D01*
X008511Y015570D01*
X008581Y015640D01*
X008721Y015640D01*
X008791Y015570D01*
X008791Y015500D01*
X008721Y015640D02*
X008791Y015710D01*
X008791Y015780D01*
X008721Y015850D01*
X008581Y015850D01*
X008511Y015780D01*
X008511Y015710D01*
X008581Y015640D01*
X008331Y015430D02*
X008050Y015430D01*
X008191Y015430D02*
X008191Y015850D01*
X008050Y015710D01*
X007870Y015780D02*
X007800Y015850D01*
X007660Y015850D01*
X007590Y015780D01*
X007590Y015500D01*
X007660Y015430D01*
X007800Y015430D01*
X007870Y015500D01*
X007346Y015394D02*
X007066Y015394D01*
X007206Y015394D02*
X007206Y015815D01*
X007066Y015674D01*
X006886Y015815D02*
X006606Y015815D01*
X006606Y015394D01*
X006606Y015604D02*
X006746Y015604D01*
X010261Y015540D02*
X010331Y015610D01*
X010471Y015610D01*
X010541Y015540D01*
X010541Y015470D01*
X010261Y015190D01*
X010541Y015190D01*
X010859Y015290D02*
X010859Y015010D01*
X010929Y014940D01*
X011069Y014940D01*
X011139Y015010D01*
X011319Y014940D02*
X011599Y014940D01*
X011459Y014940D02*
X011459Y015360D01*
X011319Y015220D01*
X011139Y015290D02*
X011069Y015360D01*
X010929Y015360D01*
X010859Y015290D01*
X011780Y015360D02*
X011780Y015150D01*
X011920Y015220D01*
X011990Y015220D01*
X012060Y015150D01*
X012060Y015010D01*
X011990Y014940D01*
X011850Y014940D01*
X011780Y015010D01*
X011780Y015360D02*
X012060Y015360D01*
X014140Y015910D02*
X014210Y015840D01*
X014490Y015840D01*
X014560Y015910D01*
X014560Y016050D01*
X014490Y016120D01*
X014560Y016300D02*
X014560Y016581D01*
X014560Y016441D02*
X014140Y016441D01*
X014280Y016300D01*
X014210Y016120D02*
X014140Y016050D01*
X014140Y015910D01*
X014210Y016761D02*
X014280Y016761D01*
X014350Y016831D01*
X014350Y017041D01*
X014490Y017041D02*
X014210Y017041D01*
X014140Y016971D01*
X014140Y016831D01*
X014210Y016761D01*
X014490Y016761D02*
X014560Y016831D01*
X014560Y016971D01*
X014490Y017041D01*
D11*
X013370Y014770D02*
X012000Y014770D01*
X011760Y014770D01*
X010390Y014770D01*
X010390Y014690D01*
X008700Y014470D02*
X008450Y014220D01*
X008700Y013970D01*
X008700Y013470D01*
X008450Y013220D01*
X008700Y012970D01*
X008700Y012470D01*
X008450Y012220D01*
X008700Y011970D01*
X008700Y011470D01*
X008450Y011220D01*
X008700Y010970D01*
X008700Y010470D01*
X008450Y010220D01*
X008700Y009970D01*
X008700Y009470D01*
X008450Y009220D01*
X008700Y008970D01*
X008700Y008470D01*
X008450Y008220D01*
X008700Y007970D01*
X008700Y007470D01*
X008450Y007220D01*
X008700Y006970D01*
X008700Y006470D01*
X008450Y006220D01*
X008700Y005970D01*
X008700Y005470D01*
X008450Y005220D01*
X008700Y004970D01*
X008700Y004470D01*
X008450Y004220D01*
X008700Y003970D01*
X008700Y003470D01*
X008450Y003220D01*
X006950Y003220D01*
X006700Y003470D01*
X006700Y003970D01*
X006950Y004220D01*
X006700Y004470D01*
X006700Y004970D01*
X006950Y005220D01*
X006700Y005470D01*
X006700Y005970D01*
X006950Y006220D01*
X006700Y006470D01*
X006700Y006970D01*
X006950Y007220D01*
X006700Y007470D01*
X006700Y007970D01*
X006950Y008220D01*
X006700Y008470D01*
X006700Y008970D01*
X006950Y009220D01*
X006700Y009470D01*
X006700Y009970D01*
X006950Y010220D01*
X006700Y010470D01*
X006700Y010970D01*
X006950Y011220D01*
X006700Y011470D01*
X006700Y011970D01*
X006950Y012220D01*
X006700Y012470D01*
X006700Y012970D01*
X006950Y013220D01*
X006700Y013470D01*
X006700Y013970D01*
X006950Y014220D01*
X006700Y014470D01*
X006700Y014970D01*
X006950Y015220D01*
X008450Y015220D01*
X008700Y014970D01*
X008700Y014470D01*
X006550Y014600D02*
X006550Y013800D01*
X006450Y013700D01*
X006550Y013600D01*
X006550Y012800D01*
X006450Y012700D01*
X006550Y012600D01*
X006550Y011800D01*
X006450Y011700D01*
X006550Y011600D01*
X006550Y010800D01*
X006450Y010700D01*
X006550Y010600D01*
X006550Y009800D01*
X006450Y009700D01*
X006550Y009600D01*
X006550Y008800D01*
X005750Y008800D01*
X005750Y009600D01*
X005850Y009700D01*
X005750Y009800D01*
X005750Y010600D01*
X005850Y010700D01*
X005750Y010800D01*
X005750Y011600D01*
X005850Y011700D01*
X005750Y011800D01*
X005750Y012600D01*
X005850Y012700D01*
X005750Y012800D01*
X005750Y013600D01*
X005850Y013700D01*
X005750Y013800D01*
X005750Y014600D01*
X006550Y014600D01*
X005700Y014600D02*
X005700Y013800D01*
X005600Y013700D01*
X005700Y013600D01*
X005700Y012800D01*
X005600Y012700D01*
X005700Y012600D01*
X005700Y011800D01*
X005600Y011700D01*
X005700Y011600D01*
X005700Y010800D01*
X005600Y010700D01*
X005700Y010600D01*
X005700Y009800D01*
X005600Y009700D01*
X005700Y009600D01*
X005700Y008800D01*
X004900Y008800D01*
X004900Y009600D01*
X005000Y009700D01*
X004900Y009800D01*
X004900Y010600D01*
X005000Y010700D01*
X004900Y010800D01*
X004900Y011600D01*
X005000Y011700D01*
X004900Y011800D01*
X004900Y012600D01*
X005000Y012700D01*
X004900Y012800D01*
X004900Y013600D01*
X005000Y013700D01*
X004900Y013800D01*
X004900Y014600D01*
X005700Y014600D01*
X004600Y011000D02*
X004240Y011000D01*
X004600Y011000D02*
X004600Y010620D01*
X004130Y010440D02*
X003870Y010440D01*
X003400Y010620D02*
X003400Y011000D01*
X003760Y011000D01*
X002470Y005180D02*
X002170Y005180D01*
X002170Y004880D01*
X002170Y002680D02*
X002170Y002380D01*
X002470Y002380D01*
X004670Y002380D02*
X004970Y002380D01*
X004970Y002680D01*
X004770Y004880D02*
X004670Y004980D01*
X010390Y008470D02*
X013370Y008470D01*
X013370Y008550D01*
X013950Y006250D02*
X013950Y005450D01*
X014050Y005350D01*
X013950Y005250D01*
X013950Y004450D01*
X014050Y004350D01*
X013950Y004250D01*
X013950Y003450D01*
X014050Y003350D01*
X013950Y003250D01*
X013950Y002450D01*
X014050Y002350D01*
X013950Y002250D01*
X013950Y001450D01*
X014050Y001350D01*
X013950Y001250D01*
X013950Y000450D01*
X014750Y000450D01*
X014750Y001250D01*
X014650Y001350D01*
X014750Y001450D01*
X014750Y002250D01*
X014650Y002350D01*
X014750Y002450D01*
X014750Y003250D01*
X014650Y003350D01*
X014750Y003450D01*
X014750Y004250D01*
X014650Y004350D01*
X014750Y004450D01*
X014750Y005250D01*
X014650Y005350D01*
X014750Y005450D01*
X014750Y006250D01*
X013950Y006250D01*
X013800Y004240D02*
X013800Y002460D01*
X011800Y002460D02*
X011800Y003230D01*
X011800Y003470D01*
X011800Y004240D01*
X011650Y004250D02*
X011550Y004350D01*
X011650Y004450D01*
X011650Y005250D01*
X011550Y005350D01*
X011650Y005450D01*
X011650Y006250D01*
X010850Y006250D01*
X010850Y005450D01*
X010950Y005350D01*
X010850Y005250D01*
X010850Y004450D01*
X010950Y004350D01*
X010850Y004250D01*
X010850Y003450D01*
X010950Y003350D01*
X010850Y003250D01*
X010850Y002450D01*
X010950Y002350D01*
X010850Y002250D01*
X010850Y001450D01*
X010950Y001350D01*
X010850Y001250D01*
X010850Y000450D01*
X011650Y000450D01*
X011650Y001250D01*
X011550Y001350D01*
X011650Y001450D01*
X011650Y002250D01*
X011550Y002350D01*
X011650Y002450D01*
X011650Y003250D01*
X011550Y003350D01*
X011650Y003450D01*
X011650Y004250D01*
X011800Y003470D02*
X011821Y003468D01*
X011841Y003463D01*
X011860Y003454D01*
X011877Y003442D01*
X011892Y003427D01*
X011904Y003410D01*
X011913Y003391D01*
X011918Y003371D01*
X011920Y003350D01*
X011918Y003329D01*
X011913Y003309D01*
X011904Y003290D01*
X011892Y003273D01*
X011877Y003258D01*
X011860Y003246D01*
X011841Y003237D01*
X011821Y003232D01*
X011800Y003230D01*
X010390Y008470D02*
X010390Y008550D01*
X013370Y014690D02*
X013370Y014770D01*
D12*
X000650Y001260D02*
X000650Y001250D01*
X000650Y001253D02*
X000655Y001253D01*
X000657Y001255D01*
X000657Y001258D01*
X000655Y001260D01*
X000650Y001260D01*
X000659Y001260D02*
X000666Y001260D01*
X000668Y001260D02*
X000673Y001260D01*
X000675Y001258D01*
X000675Y001255D01*
X000673Y001253D01*
X000668Y001253D01*
X000668Y001250D02*
X000668Y001260D01*
X000663Y001260D02*
X000663Y001250D01*
X000672Y001253D02*
X000675Y001250D01*
X000678Y001250D02*
X000684Y001250D01*
X000681Y001250D02*
X000681Y001260D01*
X000678Y001257D01*
X000687Y001260D02*
X000694Y001260D01*
X000696Y001260D02*
X000701Y001260D01*
X000703Y001258D01*
X000703Y001255D01*
X000701Y001253D01*
X000696Y001253D01*
X000696Y001250D02*
X000696Y001260D01*
X000690Y001260D02*
X000690Y001250D01*
X000705Y001250D02*
X000712Y001250D01*
X000714Y001252D02*
X000716Y001250D01*
X000719Y001250D01*
X000721Y001252D01*
X000721Y001255D01*
X000719Y001257D01*
X000718Y001257D01*
X000714Y001255D01*
X000714Y001260D01*
X000721Y001260D01*
X000724Y001260D02*
X000729Y001260D01*
X000730Y001258D01*
X000730Y001255D01*
X000729Y001253D01*
X000724Y001253D01*
X000727Y001253D02*
X000730Y001250D01*
X000724Y001250D02*
X000724Y001260D01*
X000709Y001260D02*
X000709Y001250D01*
X000705Y001257D02*
X000709Y001260D01*
X000709Y002250D02*
X000709Y002260D01*
X000705Y002257D01*
X000703Y002258D02*
X000703Y002255D01*
X000701Y002253D01*
X000696Y002253D01*
X000696Y002250D02*
X000696Y002260D01*
X000701Y002260D01*
X000703Y002258D01*
X000705Y002250D02*
X000712Y002250D01*
X000714Y002252D02*
X000716Y002250D01*
X000719Y002250D01*
X000721Y002252D01*
X000721Y002255D01*
X000719Y002257D01*
X000718Y002257D01*
X000714Y002255D01*
X000714Y002260D01*
X000721Y002260D01*
X000724Y002260D02*
X000729Y002260D01*
X000730Y002258D01*
X000730Y002255D01*
X000729Y002253D01*
X000724Y002253D01*
X000727Y002253D02*
X000730Y002250D01*
X000724Y002250D02*
X000724Y002260D01*
X000694Y002260D02*
X000687Y002260D01*
X000690Y002260D02*
X000690Y002250D01*
X000684Y002250D02*
X000678Y002250D01*
X000675Y002250D02*
X000672Y002253D01*
X000673Y002253D02*
X000668Y002253D01*
X000668Y002250D02*
X000668Y002260D01*
X000673Y002260D01*
X000675Y002258D01*
X000675Y002255D01*
X000673Y002253D01*
X000678Y002257D02*
X000681Y002260D01*
X000681Y002250D01*
X000666Y002260D02*
X000659Y002260D01*
X000657Y002258D02*
X000657Y002255D01*
X000655Y002253D01*
X000650Y002253D01*
X000650Y002250D02*
X000650Y002260D01*
X000655Y002260D01*
X000657Y002258D01*
X000663Y002260D02*
X000663Y002250D01*
X000663Y003650D02*
X000663Y003660D01*
X000666Y003660D02*
X000659Y003660D01*
X000657Y003658D02*
X000657Y003655D01*
X000655Y003653D01*
X000650Y003653D01*
X000650Y003650D02*
X000650Y003660D01*
X000655Y003660D01*
X000657Y003658D01*
X000668Y003660D02*
X000673Y003660D01*
X000675Y003658D01*
X000675Y003655D01*
X000673Y003653D01*
X000668Y003653D01*
X000668Y003650D02*
X000668Y003660D01*
X000672Y003653D02*
X000675Y003650D01*
X000678Y003650D02*
X000684Y003650D01*
X000681Y003650D02*
X000681Y003660D01*
X000678Y003657D01*
X000687Y003660D02*
X000694Y003660D01*
X000696Y003660D02*
X000701Y003660D01*
X000703Y003658D01*
X000703Y003655D01*
X000701Y003653D01*
X000696Y003653D01*
X000696Y003650D02*
X000696Y003660D01*
X000690Y003660D02*
X000690Y003650D01*
X000705Y003650D02*
X000712Y003650D01*
X000714Y003652D02*
X000716Y003650D01*
X000719Y003650D01*
X000721Y003652D01*
X000721Y003655D01*
X000719Y003657D01*
X000718Y003657D01*
X000714Y003655D01*
X000714Y003660D01*
X000721Y003660D01*
X000724Y003660D02*
X000729Y003660D01*
X000730Y003658D01*
X000730Y003655D01*
X000729Y003653D01*
X000724Y003653D01*
X000727Y003653D02*
X000730Y003650D01*
X000724Y003650D02*
X000724Y003660D01*
X000709Y003660D02*
X000709Y003650D01*
X000705Y003657D02*
X000709Y003660D01*
X000709Y004650D02*
X000709Y004660D01*
X000705Y004657D01*
X000703Y004658D02*
X000703Y004655D01*
X000701Y004653D01*
X000696Y004653D01*
X000696Y004650D02*
X000696Y004660D01*
X000701Y004660D01*
X000703Y004658D01*
X000705Y004650D02*
X000712Y004650D01*
X000714Y004652D02*
X000716Y004650D01*
X000719Y004650D01*
X000721Y004652D01*
X000721Y004655D01*
X000719Y004657D01*
X000718Y004657D01*
X000714Y004655D01*
X000714Y004660D01*
X000721Y004660D01*
X000724Y004660D02*
X000729Y004660D01*
X000730Y004658D01*
X000730Y004655D01*
X000729Y004653D01*
X000724Y004653D01*
X000727Y004653D02*
X000730Y004650D01*
X000724Y004650D02*
X000724Y004660D01*
X000694Y004660D02*
X000687Y004660D01*
X000690Y004660D02*
X000690Y004650D01*
X000684Y004650D02*
X000678Y004650D01*
X000675Y004650D02*
X000672Y004653D01*
X000673Y004653D02*
X000668Y004653D01*
X000668Y004650D02*
X000668Y004660D01*
X000673Y004660D01*
X000675Y004658D01*
X000675Y004655D01*
X000673Y004653D01*
X000678Y004657D02*
X000681Y004660D01*
X000681Y004650D01*
X000666Y004660D02*
X000659Y004660D01*
X000657Y004658D02*
X000657Y004655D01*
X000655Y004653D01*
X000650Y004653D01*
X000650Y004650D02*
X000650Y004660D01*
X000655Y004660D01*
X000657Y004658D01*
X000663Y004660D02*
X000663Y004650D01*
X000655Y005550D02*
X000662Y005550D01*
X000664Y005552D02*
X000666Y005550D01*
X000669Y005550D01*
X000671Y005552D01*
X000671Y005555D01*
X000669Y005557D01*
X000668Y005557D01*
X000664Y005555D01*
X000664Y005560D01*
X000671Y005560D01*
X000674Y005560D02*
X000679Y005560D01*
X000680Y005558D01*
X000680Y005555D01*
X000679Y005553D01*
X000674Y005553D01*
X000677Y005553D02*
X000680Y005550D01*
X000674Y005550D02*
X000674Y005560D01*
X000659Y005560D02*
X000659Y005550D01*
X000655Y005557D02*
X000659Y005560D01*
X000653Y005558D02*
X000653Y005555D01*
X000651Y005553D01*
X000646Y005553D01*
X000646Y005550D02*
X000646Y005560D01*
X000651Y005560D01*
X000653Y005558D01*
X000644Y005560D02*
X000637Y005560D01*
X000640Y005560D02*
X000640Y005550D01*
X000634Y005550D02*
X000628Y005550D01*
X000625Y005550D02*
X000622Y005553D01*
X000623Y005553D02*
X000618Y005553D01*
X000618Y005550D02*
X000618Y005560D01*
X000623Y005560D01*
X000625Y005558D01*
X000625Y005555D01*
X000623Y005553D01*
X000628Y005557D02*
X000631Y005560D01*
X000631Y005550D01*
X000616Y005560D02*
X000609Y005560D01*
X000607Y005558D02*
X000607Y005555D01*
X000605Y005553D01*
X000600Y005553D01*
X000600Y005550D02*
X000600Y005560D01*
X000605Y005560D01*
X000607Y005558D01*
X000613Y005560D02*
X000613Y005550D01*
X000650Y006650D02*
X000650Y006660D01*
X000655Y006660D01*
X000657Y006658D01*
X000657Y006655D01*
X000655Y006653D01*
X000650Y006653D01*
X000659Y006660D02*
X000666Y006660D01*
X000668Y006660D02*
X000673Y006660D01*
X000675Y006658D01*
X000675Y006655D01*
X000673Y006653D01*
X000668Y006653D01*
X000668Y006650D02*
X000668Y006660D01*
X000663Y006660D02*
X000663Y006650D01*
X000672Y006653D02*
X000675Y006650D01*
X000678Y006650D02*
X000684Y006650D01*
X000681Y006650D02*
X000681Y006660D01*
X000678Y006657D01*
X000687Y006660D02*
X000694Y006660D01*
X000696Y006660D02*
X000701Y006660D01*
X000703Y006658D01*
X000703Y006655D01*
X000701Y006653D01*
X000696Y006653D01*
X000696Y006650D02*
X000696Y006660D01*
X000690Y006660D02*
X000690Y006650D01*
X000705Y006650D02*
X000712Y006650D01*
X000714Y006652D02*
X000716Y006650D01*
X000719Y006650D01*
X000721Y006652D01*
X000721Y006655D01*
X000719Y006657D01*
X000718Y006657D01*
X000714Y006655D01*
X000714Y006660D01*
X000721Y006660D01*
X000724Y006660D02*
X000729Y006660D01*
X000730Y006658D01*
X000730Y006655D01*
X000729Y006653D01*
X000724Y006653D01*
X000727Y006653D02*
X000730Y006650D01*
X000724Y006650D02*
X000724Y006660D01*
X000709Y006660D02*
X000709Y006650D01*
X000705Y006657D02*
X000709Y006660D01*
X005750Y003560D02*
X005755Y003560D01*
X005757Y003558D01*
X005757Y003555D01*
X005755Y003553D01*
X005750Y003553D01*
X005750Y003550D02*
X005750Y003560D01*
X005759Y003560D02*
X005766Y003560D01*
X005768Y003560D02*
X005773Y003560D01*
X005775Y003558D01*
X005775Y003555D01*
X005773Y003553D01*
X005768Y003553D01*
X005768Y003550D02*
X005768Y003560D01*
X005763Y003560D02*
X005763Y003550D01*
X005772Y003553D02*
X005775Y003550D01*
X005778Y003550D02*
X005784Y003550D01*
X005781Y003550D02*
X005781Y003560D01*
X005778Y003557D01*
X005787Y003560D02*
X005794Y003560D01*
X005796Y003560D02*
X005801Y003560D01*
X005803Y003558D01*
X005803Y003555D01*
X005801Y003553D01*
X005796Y003553D01*
X005796Y003550D02*
X005796Y003560D01*
X005790Y003560D02*
X005790Y003550D01*
X005805Y003550D02*
X005812Y003550D01*
X005814Y003552D02*
X005816Y003550D01*
X005819Y003550D01*
X005821Y003552D01*
X005821Y003555D01*
X005819Y003557D01*
X005818Y003557D01*
X005814Y003555D01*
X005814Y003560D01*
X005821Y003560D01*
X005824Y003560D02*
X005829Y003560D01*
X005830Y003558D01*
X005830Y003555D01*
X005829Y003553D01*
X005824Y003553D01*
X005827Y003553D02*
X005830Y003550D01*
X005824Y003550D02*
X005824Y003560D01*
X005809Y003560D02*
X005809Y003550D01*
X005805Y003557D02*
X005809Y003560D01*
X006000Y005500D02*
X006000Y005510D01*
X006005Y005510D01*
X006007Y005508D01*
X006007Y005505D01*
X006005Y005503D01*
X006000Y005503D01*
X006009Y005510D02*
X006016Y005510D01*
X006018Y005510D02*
X006023Y005510D01*
X006025Y005508D01*
X006025Y005505D01*
X006023Y005503D01*
X006018Y005503D01*
X006018Y005500D02*
X006018Y005510D01*
X006013Y005510D02*
X006013Y005500D01*
X006022Y005503D02*
X006025Y005500D01*
X006028Y005500D02*
X006034Y005500D01*
X006031Y005500D02*
X006031Y005510D01*
X006028Y005507D01*
X006037Y005510D02*
X006044Y005510D01*
X006046Y005510D02*
X006051Y005510D01*
X006053Y005508D01*
X006053Y005505D01*
X006051Y005503D01*
X006046Y005503D01*
X006046Y005500D02*
X006046Y005510D01*
X006040Y005510D02*
X006040Y005500D01*
X006055Y005500D02*
X006062Y005500D01*
X006064Y005502D02*
X006066Y005500D01*
X006069Y005500D01*
X006071Y005502D01*
X006071Y005505D01*
X006069Y005507D01*
X006068Y005507D01*
X006064Y005505D01*
X006064Y005510D01*
X006071Y005510D01*
X006074Y005510D02*
X006079Y005510D01*
X006080Y005508D01*
X006080Y005505D01*
X006079Y005503D01*
X006074Y005503D01*
X006077Y005503D02*
X006080Y005500D01*
X006074Y005500D02*
X006074Y005510D01*
X006059Y005510D02*
X006059Y005500D01*
X006055Y005507D02*
X006059Y005510D01*
X009510Y014420D02*
X009494Y014414D01*
X009476Y014412D01*
X009459Y014414D01*
X009442Y014419D01*
X009427Y014427D01*
X009414Y014439D01*
X009403Y014453D01*
X009396Y014469D01*
X009392Y014486D01*
X009392Y014504D01*
X009396Y014521D01*
X009403Y014537D01*
X009414Y014551D01*
X009427Y014563D01*
X009442Y014571D01*
X009459Y014576D01*
X009476Y014578D01*
X009494Y014576D01*
X009510Y014570D01*
X011760Y014770D02*
X011762Y014749D01*
X011767Y014729D01*
X011776Y014710D01*
X011788Y014693D01*
X011803Y014678D01*
X011820Y014666D01*
X011839Y014657D01*
X011859Y014652D01*
X011880Y014650D01*
X011901Y014652D01*
X011921Y014657D01*
X011940Y014666D01*
X011957Y014678D01*
X011972Y014693D01*
X011984Y014710D01*
X011993Y014729D01*
X011998Y014749D01*
X012000Y014770D01*
D13*
X011868Y007494D03*
D14*
X011450Y006150D02*
X011452Y006170D01*
X011458Y006188D01*
X011467Y006206D01*
X011479Y006221D01*
X011494Y006233D01*
X011512Y006242D01*
X011530Y006248D01*
X011550Y006250D01*
X011570Y006248D01*
X011588Y006242D01*
X011606Y006233D01*
X011621Y006221D01*
X011633Y006206D01*
X011642Y006188D01*
X011648Y006170D01*
X011650Y006150D01*
X011648Y006130D01*
X011642Y006112D01*
X011633Y006094D01*
X011621Y006079D01*
X011606Y006067D01*
X011588Y006058D01*
X011570Y006052D01*
X011550Y006050D01*
X011530Y006052D01*
X011512Y006058D01*
X011494Y006067D01*
X011479Y006079D01*
X011467Y006094D01*
X011458Y006112D01*
X011452Y006130D01*
X011450Y006150D01*
X009325Y004010D02*
X008875Y004010D01*
X009100Y003785D01*
X009100Y004085D01*
X009025Y003624D02*
X008950Y003624D01*
X008875Y003549D01*
X008875Y003399D01*
X008950Y003324D01*
X009025Y003624D02*
X009325Y003324D01*
X009325Y003624D01*
X005750Y008900D02*
X005752Y008920D01*
X005758Y008938D01*
X005767Y008956D01*
X005779Y008971D01*
X005794Y008983D01*
X005812Y008992D01*
X005830Y008998D01*
X005850Y009000D01*
X005870Y008998D01*
X005888Y008992D01*
X005906Y008983D01*
X005921Y008971D01*
X005933Y008956D01*
X005942Y008938D01*
X005948Y008920D01*
X005950Y008900D01*
X005948Y008880D01*
X005942Y008862D01*
X005933Y008844D01*
X005921Y008829D01*
X005906Y008817D01*
X005888Y008808D01*
X005870Y008802D01*
X005850Y008800D01*
X005830Y008802D01*
X005812Y008808D01*
X005794Y008817D01*
X005779Y008829D01*
X005767Y008844D01*
X005758Y008862D01*
X005752Y008880D01*
X005750Y008900D01*
X004900Y008900D02*
X004902Y008920D01*
X004908Y008938D01*
X004917Y008956D01*
X004929Y008971D01*
X004944Y008983D01*
X004962Y008992D01*
X004980Y008998D01*
X005000Y009000D01*
X005020Y008998D01*
X005038Y008992D01*
X005056Y008983D01*
X005071Y008971D01*
X005083Y008956D01*
X005092Y008938D01*
X005098Y008920D01*
X005100Y008900D01*
X005098Y008880D01*
X005092Y008862D01*
X005083Y008844D01*
X005071Y008829D01*
X005056Y008817D01*
X005038Y008808D01*
X005020Y008802D01*
X005000Y008800D01*
X004980Y008802D01*
X004962Y008808D01*
X004944Y008817D01*
X004929Y008829D01*
X004917Y008844D01*
X004908Y008862D01*
X004902Y008880D01*
X004900Y008900D01*
X006225Y014435D02*
X006075Y014585D01*
X006525Y014585D01*
X006525Y014435D02*
X006525Y014735D01*
X014550Y006150D02*
X014552Y006170D01*
X014558Y006188D01*
X014567Y006206D01*
X014579Y006221D01*
X014594Y006233D01*
X014612Y006242D01*
X014630Y006248D01*
X014650Y006250D01*
X014670Y006248D01*
X014688Y006242D01*
X014706Y006233D01*
X014721Y006221D01*
X014733Y006206D01*
X014742Y006188D01*
X014748Y006170D01*
X014750Y006150D01*
X014748Y006130D01*
X014742Y006112D01*
X014733Y006094D01*
X014721Y006079D01*
X014706Y006067D01*
X014688Y006058D01*
X014670Y006052D01*
X014650Y006050D01*
X014630Y006052D01*
X014612Y006058D01*
X014594Y006067D01*
X014579Y006079D01*
X014567Y006094D01*
X014558Y006112D01*
X014552Y006130D01*
X014550Y006150D01*
D15*
X004350Y006550D03*
M02*
