G75*
G70*
%OFA0B0*%
%FSLAX24Y24*%
%IPPOS*%
%LPD*%
%AMOC8*
5,1,8,0,0,1.08239X$1,22.5*
%
%ADD10C,0.0580*%
%ADD11OC8,0.0580*%
%ADD12R,0.0473X0.0434*%
%ADD13R,0.0460X0.0460*%
%ADD14C,0.0460*%
%ADD15C,0.0520*%
%ADD16OC8,0.0640*%
%ADD17C,0.0985*%
%ADD18C,0.0940*%
D10*
X002200Y018200D03*
D11*
X002200Y019200D03*
X003200Y019200D03*
X003200Y018200D03*
X004200Y018200D03*
X004200Y019200D03*
X005200Y019200D03*
X005200Y018200D03*
X006200Y018200D03*
X006200Y019200D03*
X007200Y019200D03*
X007200Y018200D03*
X008200Y018200D03*
X008200Y019200D03*
X009200Y019200D03*
X009200Y018200D03*
X010200Y018200D03*
X010200Y019200D03*
X011200Y019200D03*
X011200Y018200D03*
X012200Y018200D03*
X012200Y019200D03*
X013200Y019200D03*
X013200Y018200D03*
X014200Y018200D03*
X014200Y019200D03*
D12*
X010085Y012750D03*
X009415Y012750D03*
X009415Y010400D03*
X009415Y009750D03*
X010085Y009750D03*
X010085Y010400D03*
X013665Y010250D03*
X013665Y011050D03*
X014335Y011050D03*
X014335Y010250D03*
X005335Y005150D03*
X005335Y004450D03*
X004665Y004450D03*
X004665Y005150D03*
D13*
X007290Y002770D03*
D14*
X007290Y002270D03*
X007790Y002270D03*
X007790Y002770D03*
X008290Y002770D03*
X008290Y002270D03*
X008790Y002270D03*
X008790Y002770D03*
X009290Y002770D03*
X009290Y002270D03*
D15*
X011250Y001850D03*
X011250Y000850D03*
X011250Y002850D03*
X011250Y003850D03*
X011250Y004850D03*
X011250Y005850D03*
X014350Y005850D03*
X014350Y004850D03*
X014350Y003850D03*
X014350Y002850D03*
X014350Y001850D03*
X014350Y000850D03*
X006150Y009200D03*
X006150Y010200D03*
X006150Y011200D03*
X006150Y012200D03*
X006150Y013200D03*
X006150Y014200D03*
X005300Y014200D03*
X005300Y013200D03*
X005300Y012200D03*
X005300Y011200D03*
X005300Y010200D03*
X005300Y009200D03*
D16*
X007200Y008720D03*
X007200Y007720D03*
X007200Y006720D03*
X007200Y005720D03*
X007200Y004720D03*
X007200Y003720D03*
X008200Y003720D03*
X008200Y004720D03*
X008200Y005720D03*
X008200Y006720D03*
X008200Y007720D03*
X008200Y008720D03*
X008200Y009720D03*
X008200Y010720D03*
X008200Y011720D03*
X008200Y012720D03*
X008200Y013720D03*
X008200Y014720D03*
X007200Y014720D03*
X007200Y013720D03*
X007200Y012720D03*
X007200Y011720D03*
X007200Y010720D03*
X007200Y009720D03*
D17*
X003381Y014928D02*
X003381Y015872D01*
X002672Y013510D02*
X001728Y013510D01*
X001019Y014928D02*
X001019Y015872D01*
D18*
X003570Y003780D03*
M02*
