%
M48
M72
T01C0.0130
T02C0.0260
T03C0.0320
T04C0.0360
T05C0.0400
T06C0.0600
T07C0.0630
%
T01
X1250Y1200
X1750Y3210
X1500Y4400
X1500Y6350
X700Y8500
X1600Y8800
X1500Y9850
X2550Y10500
X1600Y12020
X850Y12000
X3910Y9960
X4050Y7600
X5790Y5080
X6300Y5160
X6800Y6200
X5400Y4050
X5400Y3600
X5350Y2900
X5400Y1720
X9000Y3400
X9450Y3850
X9200Y4100
X10300Y5400
X10450Y5050
X10500Y5750
X10300Y6100
X10150Y5750
X10150Y6900
X10400Y7150
X10600Y7750
X10600Y8250
X10850Y8500
X11100Y8750
X11400Y8950
X11450Y9300
X11800Y8950
X11800Y8200
X12100Y7290
X11400Y7300
X11050Y7300
X9750Y8300
X10550Y9500
X10550Y9900
X10550Y10250
X10550Y10750
X10550Y12750
X10550Y13500
X11200Y14200
X10950Y14450
X11850Y15300
X12100Y15050
X13200Y14500
X13850Y15400
X13850Y15750
X13200Y13250
X13200Y11750
X13200Y11050
X13200Y10700
X13200Y10250
X12700Y7950
X13200Y5300
X11620Y4320
X11900Y3350
X12300Y1650
X12300Y1300
X11750Y1320
X10700Y740
X13850Y2200
X4770Y12370
X5500Y17000
X8450Y16800
X8450Y16450
T02
X8290Y2770
X8290Y2270
X7790Y2270
X7790Y2770
X7290Y2770
X7290Y2270
X8790Y2270
X8790Y2770
X9290Y2770
X9290Y2270
T03
X11250Y1850
X11250Y850
X11250Y2850
X11250Y3850
X11250Y4850
X11250Y5850
X14350Y5850
X14350Y4850
X14350Y3850
X14350Y2850
X14350Y1850
X14350Y850
X6150Y9200
X6150Y10200
X6150Y11200
X6150Y12200
X6150Y13200
X6150Y14200
X5300Y14200
X5300Y13200
X5300Y12200
X5300Y11200
X5300Y10200
X5300Y9200
T04
X5200Y18200
X5200Y19200
X6200Y19200
X6200Y18200
X7200Y18200
X7200Y19200
X8200Y19200
X8200Y18200
X9200Y18200
X9200Y19200
X10200Y19200
X10200Y18200
X11200Y18200
X11200Y19200
X12200Y19200
X12200Y18200
X13200Y18200
X13200Y19200
X14200Y19200
X14200Y18200
X4200Y18200
X4200Y19200
X3200Y19200
X3200Y18200
X2200Y18200
X2200Y19200
T05
X7200Y14720
X7200Y13720
X7200Y12720
X7200Y11720
X7200Y10720
X7200Y9720
X7200Y8720
X7200Y7720
X7200Y6720
X7200Y5720
X7200Y4720
X7200Y3720
X8200Y3720
X8200Y4720
X8200Y5720
X8200Y6720
X8200Y7720
X8200Y8720
X8200Y9720
X8200Y10720
X8200Y11720
X8200Y12720
X8200Y13720
X8200Y14720
T06
X3570Y3780
T07
X2200Y13510
X1019Y15400
X3381Y15400
M30
