G75*
G70*
%OFA0B0*%
%FSLAX24Y24*%
%IPPOS*%
%LPD*%
%AMOC8*
5,1,8,0,0,1.08239X$1,22.5*
%
%ADD10C,0.0060*%
%ADD11C,0.0050*%
%ADD12C,0.0080*%
%ADD13C,0.0090*%
D10*
X006990Y001950D02*
X006990Y003090D01*
X009590Y003090D01*
X009590Y001950D01*
X006990Y001950D01*
X001950Y017500D02*
X014450Y017500D01*
X014480Y017502D01*
X014510Y017507D01*
X014539Y017516D01*
X014566Y017529D01*
X014592Y017544D01*
X014616Y017563D01*
X014637Y017584D01*
X014656Y017608D01*
X014671Y017634D01*
X014684Y017661D01*
X014693Y017690D01*
X014698Y017720D01*
X014700Y017750D01*
X014700Y019650D01*
X014698Y019680D01*
X014693Y019710D01*
X014684Y019739D01*
X014671Y019766D01*
X014656Y019792D01*
X014637Y019816D01*
X014616Y019837D01*
X014592Y019856D01*
X014566Y019871D01*
X014539Y019884D01*
X014510Y019893D01*
X014480Y019898D01*
X014450Y019900D01*
X001950Y019900D01*
X001920Y019898D01*
X001890Y019893D01*
X001861Y019884D01*
X001834Y019871D01*
X001808Y019856D01*
X001784Y019837D01*
X001763Y019816D01*
X001744Y019792D01*
X001729Y019766D01*
X001716Y019739D01*
X001707Y019710D01*
X001702Y019680D01*
X001700Y019650D01*
X001700Y017750D01*
X001702Y017720D01*
X001707Y017690D01*
X001716Y017661D01*
X001729Y017634D01*
X001744Y017608D01*
X001763Y017584D01*
X001784Y017563D01*
X001808Y017544D01*
X001834Y017529D01*
X001861Y017516D01*
X001890Y017507D01*
X001920Y017502D01*
X001950Y017500D01*
D11*
X002335Y017325D02*
X002335Y016875D01*
X002485Y016875D02*
X002185Y016875D01*
X002485Y017175D02*
X002335Y017325D01*
D12*
X004469Y003640D02*
X004750Y003640D01*
X004469Y003920D01*
X004469Y003990D01*
X004539Y004060D01*
X004680Y004060D01*
X004750Y003990D01*
X004930Y003990D02*
X005000Y004060D01*
X005140Y004060D01*
X005210Y003990D01*
X005210Y003710D01*
X005140Y003640D01*
X005000Y003640D01*
X004930Y003710D01*
X005000Y005590D02*
X004930Y005660D01*
X005000Y005590D02*
X005140Y005590D01*
X005210Y005660D01*
X005210Y005940D01*
X005140Y006010D01*
X005000Y006010D01*
X004930Y005940D01*
X004750Y005800D02*
X004469Y005800D01*
X004539Y005590D02*
X004539Y006010D01*
X004750Y005800D01*
X007120Y001750D02*
X007260Y001680D01*
X007400Y001540D01*
X007190Y001540D01*
X007120Y001470D01*
X007120Y001400D01*
X007190Y001330D01*
X007330Y001330D01*
X007400Y001400D01*
X007400Y001540D01*
X007581Y001540D02*
X007581Y001680D01*
X007651Y001750D01*
X007861Y001750D01*
X007861Y001330D01*
X007861Y001470D02*
X007651Y001470D01*
X007581Y001540D01*
X009439Y008840D02*
X009580Y008840D01*
X009650Y008910D01*
X009650Y009050D02*
X009509Y009120D01*
X009439Y009120D01*
X009369Y009050D01*
X009369Y008910D01*
X009439Y008840D01*
X009650Y009050D02*
X009650Y009260D01*
X009369Y009260D01*
X009830Y009190D02*
X009900Y009260D01*
X010040Y009260D01*
X010110Y009190D01*
X010110Y008910D01*
X010040Y008840D01*
X009900Y008840D01*
X009830Y008910D01*
X009850Y010890D02*
X009569Y010890D01*
X009389Y010890D02*
X009109Y011170D01*
X009109Y011240D01*
X009179Y011310D01*
X009319Y011310D01*
X009389Y011240D01*
X009569Y011240D02*
X009639Y011310D01*
X009780Y011310D01*
X009850Y011240D01*
X010030Y011240D02*
X010100Y011310D01*
X010240Y011310D01*
X010310Y011240D01*
X010310Y010960D01*
X010240Y010890D01*
X010100Y010890D01*
X010030Y010960D01*
X009850Y010890D02*
X009569Y011170D01*
X009569Y011240D01*
X009389Y010890D02*
X009109Y010890D01*
X009109Y013190D02*
X009389Y013190D01*
X009249Y013190D02*
X009249Y013610D01*
X009389Y013470D01*
X009569Y013470D02*
X009569Y013540D01*
X009639Y013610D01*
X009780Y013610D01*
X009850Y013540D01*
X010030Y013540D02*
X010100Y013610D01*
X010240Y013610D01*
X010310Y013540D01*
X010310Y013260D01*
X010240Y013190D01*
X010100Y013190D01*
X010030Y013260D01*
X009850Y013190D02*
X009569Y013470D01*
X009569Y013190D02*
X009850Y013190D01*
X013340Y009640D02*
X013340Y009360D01*
X013410Y009290D01*
X013550Y009290D01*
X013620Y009360D01*
X013340Y009640D01*
X013410Y009710D01*
X013550Y009710D01*
X013620Y009640D01*
X013620Y009360D01*
X013801Y009290D02*
X014081Y009290D01*
X013801Y009570D01*
X013801Y009640D01*
X013871Y009710D01*
X014011Y009710D01*
X014081Y009640D01*
X014261Y009640D02*
X014331Y009710D01*
X014471Y009710D01*
X014541Y009640D01*
X014541Y009360D01*
X014471Y009290D01*
X014331Y009290D01*
X014261Y009360D01*
X014321Y011540D02*
X014251Y011610D01*
X014321Y011540D02*
X014461Y011540D01*
X014531Y011610D01*
X014531Y011890D01*
X014461Y011960D01*
X014321Y011960D01*
X014251Y011890D01*
X014070Y011750D02*
X014070Y011610D01*
X014000Y011540D01*
X013860Y011540D01*
X013790Y011610D01*
X013790Y011680D01*
X013860Y011750D01*
X014070Y011750D01*
X013930Y011890D01*
X013790Y011960D01*
X001460Y017640D02*
X001460Y018060D01*
X001250Y018060D01*
X001180Y017990D01*
X001180Y017850D01*
X001250Y017780D01*
X001460Y017780D01*
X001000Y017710D02*
X001000Y017640D01*
X001000Y017710D02*
X000719Y017990D01*
X000719Y018060D01*
X001000Y018060D01*
D13*
X006816Y002955D02*
X006886Y002955D01*
X006921Y002920D01*
X006921Y002850D01*
X006886Y002815D01*
X006816Y002815D01*
X006781Y002850D01*
X006781Y002920D01*
X006816Y002955D01*
M02*
