G75*
G70*
%OFA0B0*%
%FSLAX24Y24*%
%IPPOS*%
%LPD*%
%AMOC8*
5,1,8,0,0,1.08239X$1,22.5*
%
%ADD10C,0.0580*%
%ADD11OC8,0.0580*%
%ADD12R,0.0552X0.0631*%
%ADD13R,0.1064X0.0906*%
%ADD14R,0.0180X0.0460*%
%ADD15R,0.0460X0.0180*%
%ADD16R,0.1890X0.1890*%
%ADD17R,0.0720X0.0200*%
%ADD18R,0.0473X0.0434*%
%ADD19R,0.0434X0.0473*%
%ADD20R,0.0276X0.0158*%
%ADD21R,0.0460X0.0460*%
%ADD22C,0.0460*%
%ADD23R,0.0180X0.0620*%
%ADD24C,0.0520*%
%ADD25R,0.0827X0.0985*%
%ADD26OC8,0.0640*%
%ADD27R,0.0367X0.0670*%
%ADD28R,0.0197X0.0670*%
%ADD29R,0.0640X0.0220*%
%ADD30R,0.0260X0.0540*%
%ADD31C,0.0985*%
%ADD32R,0.0631X0.1457*%
%ADD33R,0.0591X0.0591*%
%ADD34C,0.0631*%
%ADD35R,0.0276X0.0119*%
%ADD36R,0.0158X0.0237*%
%ADD37C,0.0940*%
D10*
X002200Y018200D03*
D11*
X002200Y019200D03*
X003200Y019200D03*
X003200Y018200D03*
X004200Y018200D03*
X004200Y019200D03*
X005200Y019200D03*
X005200Y018200D03*
X006200Y018200D03*
X006200Y019200D03*
X007200Y019200D03*
X007200Y018200D03*
X008200Y018200D03*
X008200Y019200D03*
X009200Y019200D03*
X009200Y018200D03*
X010200Y018200D03*
X010200Y019200D03*
X011200Y019200D03*
X011200Y018200D03*
X012200Y018200D03*
X012200Y019200D03*
X013200Y019200D03*
X013200Y018200D03*
X014200Y018200D03*
X014200Y019200D03*
D12*
X013374Y015300D03*
X012626Y015300D03*
X004374Y012820D03*
X004374Y011920D03*
X003626Y011920D03*
X003626Y012820D03*
X003586Y009480D03*
X004334Y009480D03*
D13*
X007216Y016640D03*
X009184Y016640D03*
X011416Y016400D03*
X013384Y016400D03*
D14*
X004470Y005090D03*
X004210Y005090D03*
X003950Y005090D03*
X003700Y005090D03*
X003440Y005090D03*
X003190Y005090D03*
X002930Y005090D03*
X002670Y005090D03*
X002670Y002470D03*
X002930Y002470D03*
X003190Y002470D03*
X003440Y002470D03*
X003700Y002470D03*
X003950Y002470D03*
X004210Y002470D03*
X004470Y002470D03*
D15*
X004880Y002880D03*
X004880Y003140D03*
X004880Y003400D03*
X004880Y003650D03*
X004880Y003910D03*
X004880Y004160D03*
X004880Y004420D03*
X004880Y004680D03*
X002260Y004680D03*
X002260Y004420D03*
X002260Y004160D03*
X002260Y003910D03*
X002260Y003650D03*
X002260Y003400D03*
X002260Y003140D03*
X002260Y002880D03*
D16*
X003570Y003780D03*
D17*
X009980Y008740D03*
X009980Y009000D03*
X009980Y009240D03*
X009980Y009500D03*
X009980Y009740D03*
X009980Y010000D03*
X009980Y010240D03*
X009980Y010500D03*
X009980Y010740D03*
X009980Y011000D03*
X009980Y011240D03*
X009980Y011500D03*
X009980Y011740D03*
X009980Y012000D03*
X009980Y012240D03*
X009980Y012500D03*
X009980Y012740D03*
X009980Y013000D03*
X009980Y013240D03*
X009980Y013500D03*
X009980Y013740D03*
X009980Y014000D03*
X009980Y014240D03*
X009980Y014500D03*
X013780Y014500D03*
X013780Y014240D03*
X013780Y014000D03*
X013780Y013740D03*
X013780Y013500D03*
X013780Y013240D03*
X013780Y013000D03*
X013780Y012740D03*
X013780Y012500D03*
X013780Y012240D03*
X013780Y012000D03*
X013780Y011740D03*
X013780Y011500D03*
X013780Y011240D03*
X013780Y011000D03*
X013780Y010740D03*
X013780Y010500D03*
X013780Y010240D03*
X013780Y010000D03*
X013780Y009740D03*
X013780Y009500D03*
X013780Y009240D03*
X013780Y009000D03*
X013780Y008740D03*
D18*
X013335Y007500D03*
X012665Y007500D03*
X012785Y005210D03*
X012115Y005210D03*
X005135Y007600D03*
X004465Y007600D03*
X003635Y007600D03*
X002965Y007600D03*
X002535Y006700D03*
X001865Y006700D03*
X001865Y006000D03*
X002535Y006000D03*
X002835Y012400D03*
X002165Y012400D03*
X001535Y012420D03*
X000865Y012420D03*
X010300Y015965D03*
X010300Y016635D03*
D19*
X004555Y013620D03*
X003885Y013620D03*
X002920Y010835D03*
X002920Y010165D03*
D20*
X011564Y007947D03*
X011564Y007750D03*
X011564Y007553D03*
X012116Y007553D03*
X012116Y007750D03*
X012116Y007947D03*
D21*
X007290Y002770D03*
D22*
X007290Y002270D03*
X007790Y002270D03*
X007790Y002770D03*
X008290Y002770D03*
X008290Y002270D03*
X008790Y002270D03*
X008790Y002770D03*
X009290Y002770D03*
X009290Y002270D03*
D23*
X012030Y002200D03*
X012290Y002200D03*
X012540Y002200D03*
X012800Y002200D03*
X013060Y002200D03*
X013310Y002200D03*
X013570Y002200D03*
X013570Y004500D03*
X013310Y004500D03*
X013060Y004500D03*
X012800Y004500D03*
X012540Y004500D03*
X012290Y004500D03*
X012030Y004500D03*
D24*
X011250Y004850D03*
X011250Y005850D03*
X011250Y003850D03*
X011250Y002850D03*
X011250Y001850D03*
X011250Y000850D03*
X014350Y000850D03*
X014350Y001850D03*
X014350Y002850D03*
X014350Y003850D03*
X014350Y004850D03*
X014350Y005850D03*
X006150Y009200D03*
X006150Y010200D03*
X006150Y011200D03*
X006150Y012200D03*
X006150Y013200D03*
X006150Y014200D03*
X005300Y014200D03*
X005300Y013200D03*
X005300Y012200D03*
X005300Y011200D03*
X005300Y010200D03*
X005300Y009200D03*
D25*
X005137Y006550D03*
X003563Y006550D03*
D26*
X007200Y006720D03*
X007200Y005720D03*
X007200Y004720D03*
X007200Y003720D03*
X008200Y003720D03*
X008200Y004720D03*
X008200Y005720D03*
X008200Y006720D03*
X008200Y007720D03*
X008200Y008720D03*
X008200Y009720D03*
X008200Y010720D03*
X008200Y011720D03*
X008200Y012720D03*
X008200Y013720D03*
X008200Y014720D03*
X007200Y014720D03*
X007200Y013720D03*
X007200Y012720D03*
X007200Y011720D03*
X007200Y010720D03*
X007200Y009720D03*
X007200Y008720D03*
X007200Y007720D03*
D27*
X002091Y010400D03*
D28*
X001632Y010400D03*
X001376Y010400D03*
X000983Y010400D03*
X000715Y010400D03*
X001065Y011502D03*
X001335Y011502D03*
X001605Y011502D03*
X001874Y011502D03*
X002144Y011502D03*
D29*
X002680Y009550D03*
X002680Y009300D03*
X002680Y009040D03*
X002680Y008790D03*
X001080Y008790D03*
X001080Y009040D03*
X001080Y009300D03*
X001080Y009550D03*
D30*
X003630Y010310D03*
X004000Y011130D03*
X004370Y010310D03*
D31*
X002672Y013510D02*
X001728Y013510D01*
X001019Y014928D02*
X001019Y015872D01*
X003381Y015872D02*
X003381Y014928D01*
D32*
X004344Y015600D03*
X006116Y015600D03*
D33*
X006098Y016860D03*
X004602Y016860D03*
D34*
X000900Y001550D03*
X000900Y002550D03*
X000900Y003950D03*
X000900Y004950D03*
X000900Y005950D03*
X000900Y006950D03*
X006000Y003850D03*
X006250Y005800D03*
D35*
X006445Y002855D03*
X006445Y002605D03*
X006445Y002355D03*
X006445Y002105D03*
X005855Y002105D03*
X005855Y002355D03*
X005855Y002605D03*
X005855Y002855D03*
D36*
X006150Y003090D03*
X006150Y001870D03*
D37*
X003570Y003780D03*
M02*
